<?xml version="1.0" encoding="UTF-8" standalone="no"?>
<!-- Created with Inkscape (http://www.inkscape.org/) -->

<svg
   width="3000"
   height="200"
   viewBox="0 0 793.75 52.916666"
   version="1.1"
   id="svg5"
   inkscape:version="1.2 (dc2aedaf03, 2022-05-15)"
   sodipodi:docname="floor.svg"
   xmlns:inkscape="http://www.inkscape.org/namespaces/inkscape"
   xmlns:sodipodi="http://sodipodi.sourceforge.net/DTD/sodipodi-0.dtd"
   xmlns:xlink="http://www.w3.org/1999/xlink"
   xmlns="http://www.w3.org/2000/svg"
   xmlns:svg="http://www.w3.org/2000/svg">
  <sodipodi:namedview
     id="namedview7"
     pagecolor="#ffffff"
     bordercolor="#000000"
     borderopacity="0.25"
     inkscape:showpageshadow="2"
     inkscape:pageopacity="0.0"
     inkscape:pagecheckerboard="0"
     inkscape:deskcolor="#d1d1d1"
     inkscape:document-units="mm"
     showgrid="false"
     inkscape:zoom="0.18552013"
     inkscape:cx="1433.8067"
     inkscape:cy="169.79289"
     inkscape:window-width="1920"
     inkscape:window-height="991"
     inkscape:window-x="2391"
     inkscape:window-y="-9"
     inkscape:window-maximized="1"
     inkscape:current-layer="layer1" />
  <defs
     id="defs2">
    <linearGradient
       inkscape:collect="always"
       id="linearGradient1189">
      <stop
         style="stop-color:#000000;stop-opacity:1;"
         offset="0"
         id="stop1185" />
      <stop
         style="stop-color:#ff0202;stop-opacity:1;"
         offset="0.25"
         id="stop1193" />
      <stop
         style="stop-color:#2f4af1;stop-opacity:1;"
         offset="0.50275588"
         id="stop1195" />
      <stop
         style="stop-color:#dfb602;stop-opacity:1;"
         offset="0.75"
         id="stop1197" />
      <stop
         style="stop-color:#000000;stop-opacity:1;"
         offset="1"
         id="stop1187" />
    </linearGradient>
    <linearGradient
       inkscape:collect="always"
       xlink:href="#linearGradient1189"
       id="linearGradient1191"
       x1="34.941177"
       y1="182.62399"
       x2="757.38263"
       y2="-77.652115"
       gradientUnits="userSpaceOnUse" />
  </defs>
  <g
     inkscape:label="Camada 1"
     inkscape:groupmode="layer"
     id="layer1">
    <path
       id="rect184"
       style="fill:url(#linearGradient1191);stroke-width:0.0999996;stroke-linecap:round;stroke-linejoin:round;stop-color:#000000;fill-opacity:1"
       d="M 0 0 L 0 13.229167 L 13.229167 13.229167 L 13.229167 0 L 0 0 z M 13.229167 13.229167 L 13.229167 26.458333 L 26.458333 26.458333 L 26.458333 13.229167 L 13.229167 13.229167 z M 26.458333 13.229167 L 39.6875 13.229167 L 39.6875 0 L 26.458333 0 L 26.458333 13.229167 z M 39.6875 13.229167 L 39.6875 26.458333 L 52.916667 26.458333 L 52.916667 13.229167 L 39.6875 13.229167 z M 52.916667 13.229167 L 66.145833 13.229167 L 66.145833 0 L 52.916667 0 L 52.916667 13.229167 z M 66.145833 13.229167 L 66.145833 26.458333 L 79.375 26.458333 L 79.375 13.229167 L 66.145833 13.229167 z M 79.375 13.229167 L 92.604167 13.229167 L 92.604167 0 L 79.375 0 L 79.375 13.229167 z M 92.604167 13.229167 L 92.604167 26.458333 L 105.83333 26.458333 L 105.83333 13.229167 L 92.604167 13.229167 z M 105.83333 13.229167 L 119.0625 13.229167 L 119.0625 0 L 105.83333 0 L 105.83333 13.229167 z M 119.0625 13.229167 L 119.0625 26.458333 L 132.29167 26.458333 L 132.29167 13.229167 L 119.0625 13.229167 z M 132.29167 13.229167 L 145.52083 13.229167 L 145.52083 0 L 132.29167 0 L 132.29167 13.229167 z M 145.52083 13.229167 L 145.52083 26.458333 L 158.75 26.458333 L 158.75 13.229167 L 145.52083 13.229167 z M 158.75 13.229167 L 171.97917 13.229167 L 171.97917 0 L 158.75 0 L 158.75 13.229167 z M 171.97917 13.229167 L 171.97917 26.458333 L 185.20833 26.458333 L 185.20833 13.229167 L 171.97917 13.229167 z M 185.20833 13.229167 L 198.4375 13.229167 L 198.4375 0 L 185.20833 0 L 185.20833 13.229167 z M 198.4375 13.229167 L 198.4375 26.458333 L 211.66667 26.458333 L 211.66667 13.229167 L 198.4375 13.229167 z M 211.66667 13.229167 L 224.89583 13.229167 L 224.89583 0 L 211.66667 0 L 211.66667 13.229167 z M 224.89583 13.229167 L 224.89583 26.458333 L 238.125 26.458333 L 238.125 13.229167 L 224.89583 13.229167 z M 238.125 13.229167 L 251.35417 13.229167 L 251.35417 0 L 238.125 0 L 238.125 13.229167 z M 251.35417 13.229167 L 251.35417 26.458333 L 264.58333 26.458333 L 264.58333 13.229167 L 251.35417 13.229167 z M 264.58333 13.229167 L 277.8125 13.229167 L 277.8125 0 L 264.58333 0 L 264.58333 13.229167 z M 277.8125 13.229167 L 277.8125 26.458333 L 291.04167 26.458333 L 291.04167 13.229167 L 277.8125 13.229167 z M 291.04167 13.229167 L 304.27083 13.229167 L 304.27083 0 L 291.04167 0 L 291.04167 13.229167 z M 304.27083 13.229167 L 304.27083 26.458333 L 317.5 26.458333 L 317.5 13.229167 L 304.27083 13.229167 z M 317.5 13.229167 L 330.72917 13.229167 L 330.72917 0 L 317.5 0 L 317.5 13.229167 z M 330.72917 13.229167 L 330.72917 26.458333 L 343.95833 26.458333 L 343.95833 13.229167 L 330.72917 13.229167 z M 343.95833 13.229167 L 357.1875 13.229167 L 357.1875 0 L 343.95833 0 L 343.95833 13.229167 z M 357.1875 13.229167 L 357.1875 26.458333 L 370.41667 26.458333 L 370.41667 13.229167 L 357.1875 13.229167 z M 370.41667 13.229167 L 383.64583 13.229167 L 383.64583 0 L 370.41667 0 L 370.41667 13.229167 z M 383.64583 13.229167 L 383.64583 26.458333 L 396.875 26.458333 L 396.875 13.229167 L 383.64583 13.229167 z M 396.875 13.229167 L 410.10417 13.229167 L 410.10417 0 L 396.875 0 L 396.875 13.229167 z M 410.10417 13.229167 L 410.10417 26.458333 L 423.33333 26.458333 L 423.33333 13.229167 L 410.10417 13.229167 z M 423.33333 13.229167 L 436.5625 13.229167 L 436.5625 0 L 423.33333 0 L 423.33333 13.229167 z M 436.5625 13.229167 L 436.5625 26.458333 L 449.79167 26.458333 L 449.79167 13.229167 L 436.5625 13.229167 z M 449.79167 13.229167 L 463.02083 13.229167 L 463.02083 0 L 449.79167 0 L 449.79167 13.229167 z M 463.02083 13.229167 L 463.02083 26.458333 L 476.25 26.458333 L 476.25 13.229167 L 463.02083 13.229167 z M 476.25 13.229167 L 489.47917 13.229167 L 489.47917 0 L 476.25 0 L 476.25 13.229167 z M 489.47917 13.229167 L 489.47917 26.458333 L 502.70833 26.458333 L 502.70833 13.229167 L 489.47917 13.229167 z M 502.70833 13.229167 L 515.9375 13.229167 L 515.9375 0 L 502.70833 0 L 502.70833 13.229167 z M 515.9375 13.229167 L 515.9375 26.458333 L 529.16667 26.458333 L 529.16667 13.229167 L 515.9375 13.229167 z M 529.16667 13.229167 L 542.39583 13.229167 L 542.39583 0 L 529.16667 0 L 529.16667 13.229167 z M 542.39583 13.229167 L 542.39583 26.458333 L 555.625 26.458333 L 555.625 13.229167 L 542.39583 13.229167 z M 555.625 13.229167 L 568.85417 13.229167 L 568.85417 0 L 555.625 0 L 555.625 13.229167 z M 568.85417 13.229167 L 568.85417 26.458333 L 582.08333 26.458333 L 582.08333 13.229167 L 568.85417 13.229167 z M 582.08333 13.229167 L 595.3125 13.229167 L 595.3125 0 L 582.08333 0 L 582.08333 13.229167 z M 595.3125 13.229167 L 595.3125 26.458333 L 608.54167 26.458333 L 608.54167 13.229167 L 595.3125 13.229167 z M 608.54167 13.229167 L 621.77083 13.229167 L 621.77083 0 L 608.54167 0 L 608.54167 13.229167 z M 621.77083 13.229167 L 621.77083 26.458333 L 635 26.458333 L 635 13.229167 L 621.77083 13.229167 z M 635 13.229167 L 648.22917 13.229167 L 648.22917 0 L 635 0 L 635 13.229167 z M 648.22917 13.229167 L 648.22917 26.458333 L 661.45833 26.458333 L 661.45833 13.229167 L 648.22917 13.229167 z M 661.45833 13.229167 L 674.6875 13.229167 L 674.6875 0 L 661.45833 0 L 661.45833 13.229167 z M 674.6875 13.229167 L 674.6875 26.458333 L 687.91667 26.458333 L 687.91667 13.229167 L 674.6875 13.229167 z M 687.91667 13.229167 L 701.14583 13.229167 L 701.14583 0 L 687.91667 0 L 687.91667 13.229167 z M 701.14583 13.229167 L 701.14583 26.458333 L 714.375 26.458333 L 714.375 13.229167 L 701.14583 13.229167 z M 714.375 13.229167 L 727.60417 13.229167 L 727.60417 0 L 714.375 0 L 714.375 13.229167 z M 727.60417 13.229167 L 727.60417 26.458333 L 740.83333 26.458333 L 740.83333 13.229167 L 727.60417 13.229167 z M 740.83333 13.229167 L 754.0625 13.229167 L 754.0625 0 L 740.83333 0 L 740.83333 13.229167 z M 754.0625 13.229167 L 754.0625 26.458333 L 767.29167 26.458333 L 767.29167 13.229167 L 754.0625 13.229167 z M 767.29167 13.229167 L 780.52083 13.229167 L 780.52083 0 L 767.29167 0 L 767.29167 13.229167 z M 780.52083 13.229167 L 780.52083 26.458333 L 793.75 26.458333 L 793.75 13.229167 L 780.52083 13.229167 z M 780.52083 26.458333 L 767.29167 26.458333 L 767.29167 39.6875 L 780.52083 39.6875 L 780.52083 26.458333 z M 780.52083 39.6875 L 780.52083 52.916667 L 793.75 52.916667 L 793.75 39.6875 L 780.52083 39.6875 z M 767.29167 39.6875 L 754.0625 39.6875 L 754.0625 52.916667 L 767.29167 52.916667 L 767.29167 39.6875 z M 754.0625 39.6875 L 754.0625 26.458333 L 740.83333 26.458333 L 740.83333 39.6875 L 754.0625 39.6875 z M 740.83333 39.6875 L 727.60417 39.6875 L 727.60417 52.916667 L 740.83333 52.916667 L 740.83333 39.6875 z M 727.60417 39.6875 L 727.60417 26.458333 L 714.375 26.458333 L 714.375 39.6875 L 727.60417 39.6875 z M 714.375 39.6875 L 701.14583 39.6875 L 701.14583 52.916667 L 714.375 52.916667 L 714.375 39.6875 z M 701.14583 39.6875 L 701.14583 26.458333 L 687.91667 26.458333 L 687.91667 39.6875 L 701.14583 39.6875 z M 687.91667 39.6875 L 674.6875 39.6875 L 674.6875 52.916667 L 687.91667 52.916667 L 687.91667 39.6875 z M 674.6875 39.6875 L 674.6875 26.458333 L 661.45833 26.458333 L 661.45833 39.6875 L 674.6875 39.6875 z M 661.45833 39.6875 L 648.22917 39.6875 L 648.22917 52.916667 L 661.45833 52.916667 L 661.45833 39.6875 z M 648.22917 39.6875 L 648.22917 26.458333 L 635 26.458333 L 635 39.6875 L 648.22917 39.6875 z M 635 39.6875 L 621.77083 39.6875 L 621.77083 52.916667 L 635 52.916667 L 635 39.6875 z M 621.77083 39.6875 L 621.77083 26.458333 L 608.54167 26.458333 L 608.54167 39.6875 L 621.77083 39.6875 z M 608.54167 39.6875 L 595.3125 39.6875 L 595.3125 52.916667 L 608.54167 52.916667 L 608.54167 39.6875 z M 595.3125 39.6875 L 595.3125 26.458333 L 582.08333 26.458333 L 582.08333 39.6875 L 595.3125 39.6875 z M 582.08333 39.6875 L 568.85417 39.6875 L 568.85417 52.916667 L 582.08333 52.916667 L 582.08333 39.6875 z M 568.85417 39.6875 L 568.85417 26.458333 L 555.625 26.458333 L 555.625 39.6875 L 568.85417 39.6875 z M 555.625 39.6875 L 542.39583 39.6875 L 542.39583 52.916667 L 555.625 52.916667 L 555.625 39.6875 z M 542.39583 39.6875 L 542.39583 26.458333 L 529.16667 26.458333 L 529.16667 39.6875 L 542.39583 39.6875 z M 529.16667 39.6875 L 515.9375 39.6875 L 515.9375 52.916667 L 529.16667 52.916667 L 529.16667 39.6875 z M 515.9375 39.6875 L 515.9375 26.458333 L 502.70833 26.458333 L 502.70833 39.6875 L 515.9375 39.6875 z M 502.70833 39.6875 L 489.47917 39.6875 L 489.47917 52.916667 L 502.70833 52.916667 L 502.70833 39.6875 z M 489.47917 39.6875 L 489.47917 26.458333 L 476.25 26.458333 L 476.25 39.6875 L 489.47917 39.6875 z M 476.25 39.6875 L 463.02083 39.6875 L 463.02083 52.916667 L 476.25 52.916667 L 476.25 39.6875 z M 463.02083 39.6875 L 463.02083 26.458333 L 449.79167 26.458333 L 449.79167 39.6875 L 463.02083 39.6875 z M 449.79167 39.6875 L 436.5625 39.6875 L 436.5625 52.916667 L 449.79167 52.916667 L 449.79167 39.6875 z M 436.5625 39.6875 L 436.5625 26.458333 L 423.33333 26.458333 L 423.33333 39.6875 L 436.5625 39.6875 z M 423.33333 39.6875 L 410.10417 39.6875 L 410.10417 52.916667 L 423.33333 52.916667 L 423.33333 39.6875 z M 410.10417 39.6875 L 410.10417 26.458333 L 396.875 26.458333 L 396.875 39.6875 L 410.10417 39.6875 z M 396.875 39.6875 L 383.64583 39.6875 L 383.64583 52.916667 L 396.875 52.916667 L 396.875 39.6875 z M 383.64583 39.6875 L 383.64583 26.458333 L 370.41667 26.458333 L 370.41667 39.6875 L 383.64583 39.6875 z M 370.41667 39.6875 L 357.1875 39.6875 L 357.1875 52.916667 L 370.41667 52.916667 L 370.41667 39.6875 z M 357.1875 39.6875 L 357.1875 26.458333 L 343.95833 26.458333 L 343.95833 39.6875 L 357.1875 39.6875 z M 343.95833 39.6875 L 330.72917 39.6875 L 330.72917 52.916667 L 343.95833 52.916667 L 343.95833 39.6875 z M 330.72917 39.6875 L 330.72917 26.458333 L 317.5 26.458333 L 317.5 39.6875 L 330.72917 39.6875 z M 317.5 39.6875 L 304.27083 39.6875 L 304.27083 52.916667 L 317.5 52.916667 L 317.5 39.6875 z M 304.27083 39.6875 L 304.27083 26.458333 L 291.04167 26.458333 L 291.04167 39.6875 L 304.27083 39.6875 z M 291.04167 39.6875 L 277.8125 39.6875 L 277.8125 52.916667 L 291.04167 52.916667 L 291.04167 39.6875 z M 277.8125 39.6875 L 277.8125 26.458333 L 264.58333 26.458333 L 264.58333 39.6875 L 277.8125 39.6875 z M 264.58333 39.6875 L 251.35417 39.6875 L 251.35417 52.916667 L 264.58333 52.916667 L 264.58333 39.6875 z M 251.35417 39.6875 L 251.35417 26.458333 L 238.125 26.458333 L 238.125 39.6875 L 251.35417 39.6875 z M 238.125 39.6875 L 224.89583 39.6875 L 224.89583 52.916667 L 238.125 52.916667 L 238.125 39.6875 z M 224.89583 39.6875 L 224.89583 26.458333 L 211.66667 26.458333 L 211.66667 39.6875 L 224.89583 39.6875 z M 211.66667 39.6875 L 198.4375 39.6875 L 198.4375 52.916667 L 211.66667 52.916667 L 211.66667 39.6875 z M 198.4375 39.6875 L 198.4375 26.458333 L 185.20833 26.458333 L 185.20833 39.6875 L 198.4375 39.6875 z M 185.20833 39.6875 L 171.97917 39.6875 L 171.97917 52.916667 L 185.20833 52.916667 L 185.20833 39.6875 z M 171.97917 39.6875 L 171.97917 26.458333 L 158.75 26.458333 L 158.75 39.6875 L 171.97917 39.6875 z M 158.75 39.6875 L 145.52083 39.6875 L 145.52083 52.916667 L 158.75 52.916667 L 158.75 39.6875 z M 145.52083 39.6875 L 145.52083 26.458333 L 132.29167 26.458333 L 132.29167 39.6875 L 145.52083 39.6875 z M 132.29167 39.6875 L 119.0625 39.6875 L 119.0625 52.916667 L 132.29167 52.916667 L 132.29167 39.6875 z M 119.0625 39.6875 L 119.0625 26.458333 L 105.83333 26.458333 L 105.83333 39.6875 L 119.0625 39.6875 z M 105.83333 39.6875 L 92.604167 39.6875 L 92.604167 52.916667 L 105.83333 52.916667 L 105.83333 39.6875 z M 92.604167 39.6875 L 92.604167 26.458333 L 79.375 26.458333 L 79.375 39.6875 L 92.604167 39.6875 z M 79.375 39.6875 L 66.145833 39.6875 L 66.145833 52.916667 L 79.375 52.916667 L 79.375 39.6875 z M 66.145833 39.6875 L 66.145833 26.458333 L 52.916667 26.458333 L 52.916667 39.6875 L 66.145833 39.6875 z M 52.916667 39.6875 L 39.6875 39.6875 L 39.6875 52.916667 L 52.916667 52.916667 L 52.916667 39.6875 z M 39.6875 39.6875 L 39.6875 26.458333 L 26.458333 26.458333 L 26.458333 39.6875 L 39.6875 39.6875 z M 26.458333 39.6875 L 13.229167 39.6875 L 13.229167 52.916667 L 26.458333 52.916667 L 26.458333 39.6875 z M 13.229167 39.6875 L 13.229167 26.458333 L 0 26.458333 L 0 39.6875 L 13.229167 39.6875 z " />
  </g>
</svg>
